<svg xmlns="http://www.w3.org/2000/svg" width="40" height="40" viewBox="0 0 40 40" fill="none">
    <g filter="url(#filter0_i_1467_184)">
        <path fill-rule="evenodd" clip-rule="evenodd" d="M18.7787 2.31579C18.0384 3.58974 16.5469 5.4197 15.4715 6.38596C14.3907 7.35223 12.2345 8.77733 10.6728 9.56005C8.81924 10.4885 6.52256 11.0985 4.05296 11.3144L0.270197 11.6491L0 20.0162C3.5612 22.0027 5.42556 23.5196 6.44691 24.6694C7.46285 25.8246 8.9057 28.1026 9.64604 29.7328C10.4296 31.4656 11.1213 34.224 11.3051 36.3509L11.6185 40L19.9946 39.9892C21.9832 36.4319 23.5018 34.5695 24.6528 33.5493C25.8092 32.5344 28.0843 31.0931 29.7217 30.3536C31.4564 29.5709 34.2178 28.8799 36.3469 28.6964L40 28.3833L39.9892 20.0162C36.428 18.0297 34.5636 16.5128 33.5423 15.363C32.5263 14.2078 31.0943 11.9298 30.3594 10.2996C29.6244 8.66937 28.8787 5.75439 28.7004 3.82186L28.3707 0.31309L20.1243 0L18.7787 2.31579ZM26.0702 13.9039C23.393 11.2295 21.0193 6.12829 20.253 4.3823C20.1559 4.16104 19.8333 4.16104 19.7362 4.3823C18.9699 6.12828 16.5962 11.2295 13.9189 13.9039C11.2417 16.5783 6.13491 18.9495 4.38703 19.7149C4.16554 19.8119 4.16554 20.1342 4.38703 20.2312C6.13491 20.9966 11.2417 23.3677 13.9189 26.0421C16.5962 28.7165 18.9699 33.8177 19.7362 35.5637C19.8333 35.785 20.1559 35.785 20.253 35.5637C21.0193 33.8177 23.393 28.7165 26.0702 26.0421C28.7475 23.3677 33.8543 20.9966 35.6022 20.2312C35.8237 20.1342 35.8237 19.8119 35.6022 19.7149C33.8543 18.9495 28.7475 16.5783 26.0702 13.9039Z" fill="url(#paint0_linear_1467_184)"/>
    </g>
    <defs>
        <filter id="filter0_i_1467_184" x="0" y="0" width="40" height="42" filterUnits="userSpaceOnUse" color-interpolation-filters="sRGB">
            <feFlood flood-opacity="0" result="BackgroundImageFix"/>
            <feBlend mode="normal" in="SourceGraphic" in2="BackgroundImageFix" result="shape"/>
            <feColorMatrix in="SourceAlpha" type="matrix" values="0 0 0 0 0 0 0 0 0 0 0 0 0 0 0 0 0 0 127 0" result="hardAlpha"/>
            <feOffset dy="2"/>
            <feGaussianBlur stdDeviation="6.25"/>
            <feComposite in2="hardAlpha" operator="arithmetic" k2="-1" k3="1"/>
            <feColorMatrix type="matrix" values="0 0 0 0 0 0 0 0 0 0.0833333 0 0 0 0 1 0 0 0 0.28 0"/>
            <feBlend mode="normal" in2="shape" result="effect1_innerShadow_1467_184"/>
        </filter>
        <linearGradient id="paint0_linear_1467_184" x1="-0.00558089" y1="4.93019e-07" x2="39.9944" y2="40" gradientUnits="userSpaceOnUse">
            <stop stop-color="#2388FF"/>
            <stop offset="0.558181" stop-color="#2F6EB8"/>
            <stop offset="1" stop-color="white"/>
        </linearGradient>
    </defs>
</svg>