<svg width="236" height="50" viewBox="0 0 236 50" fill="none" xmlns="http://www.w3.org/2000/svg">
<path d="M66.0926 24.7855L63.1683 24.9606C63.1183 24.7174 63.0108 24.4985 62.8459 24.3039C62.6809 24.1045 62.4635 23.9464 62.1935 23.8296C61.9286 23.708 61.6112 23.6472 61.2412 23.6472C60.7464 23.6472 60.329 23.7494 59.989 23.9537C59.6491 24.1531 59.4792 24.4206 59.4792 24.7563C59.4792 25.0238 59.5891 25.25 59.8091 25.4349C60.029 25.6197 60.4064 25.7681 60.9413 25.88L63.0258 26.2886C64.1455 26.5123 64.9803 26.8723 65.5302 27.3685C66.0801 27.8646 66.355 28.5165 66.355 29.324C66.355 30.0585 66.1326 30.703 65.6877 31.2576C65.2478 31.8121 64.6429 32.245 63.8731 32.5564C63.1083 32.8628 62.226 33.0161 61.2262 33.0161C59.7016 33.0161 58.4869 32.7072 57.5821 32.0894C56.6823 31.4667 56.155 30.6203 56 29.5502L59.1417 29.3896C59.2367 29.842 59.4667 30.1874 59.8316 30.4258C60.1965 30.6592 60.6639 30.776 61.2337 30.776C61.7936 30.776 62.2435 30.6714 62.5834 30.4622C62.9283 30.2482 63.1033 29.9734 63.1083 29.6377C63.1033 29.3556 62.9808 29.1245 62.7409 28.9445C62.5009 28.7597 62.131 28.6186 61.6312 28.5213L59.6366 28.1346C58.5119 27.9157 57.6746 27.5363 57.1247 26.9964C56.5799 26.4564 56.3074 25.7681 56.3074 24.9314C56.3074 24.2115 56.5074 23.5913 56.9073 23.0708C57.3122 22.5503 57.8795 22.149 58.6094 21.8668C59.3442 21.5847 60.204 21.4436 61.1888 21.4436C62.6434 21.4436 63.7881 21.7428 64.6229 22.3411C65.4627 22.9394 65.9526 23.7542 66.0926 24.7855Z" fill="black"/>
<path d="M71.5606 26.3178V32.7972H68.3664V17.8537H71.4707V23.5669H71.6056C71.8656 22.9054 72.2855 22.3873 72.8653 22.0128C73.4452 21.6333 74.1725 21.4436 75.0473 21.4436C75.8471 21.4436 76.5445 21.6139 77.1393 21.9544C77.7392 22.29 78.2041 22.774 78.534 23.4064C78.8689 24.0339 79.0339 24.7855 79.0289 25.6611V32.7972H75.8346V26.2156C75.8396 25.5249 75.6597 24.9874 75.2948 24.6031C74.9348 24.2188 74.43 24.0266 73.7801 24.0266C73.3452 24.0266 72.9603 24.1166 72.6254 24.2966C72.2955 24.4766 72.0355 24.7393 71.8456 25.0846C71.6606 25.4251 71.5656 25.8362 71.5606 26.3178Z" fill="black"/>
<path d="M81.5426 32.7972V21.5896H84.7369V32.7972H81.5426ZM83.1472 20.1448C82.6724 20.1448 82.265 19.9916 81.925 19.6852C81.5901 19.3738 81.4227 19.0017 81.4227 18.5688C81.4227 18.1407 81.5901 17.7734 81.925 17.467C82.265 17.1557 82.6724 17 83.1472 17C83.6221 17 84.027 17.1557 84.362 17.467C84.7019 17.7734 84.8718 18.1407 84.8718 18.5688C84.8718 19.0017 84.7019 19.3738 84.362 19.6852C84.027 19.9916 83.6221 20.1448 83.1472 20.1448Z" fill="black"/>
<path d="M92.5444 33.0161C91.3597 33.0161 90.3399 32.7826 89.4851 32.3156C88.6353 31.8437 87.9805 31.1773 87.5206 30.3163C87.0607 29.4504 86.8307 28.4265 86.8307 27.2444C86.8307 26.0916 87.0607 25.0798 87.5206 24.209C87.9805 23.3383 88.6278 22.6597 89.4626 22.1733C90.3024 21.6869 91.2872 21.4436 92.4169 21.4436C93.1767 21.4436 93.884 21.5628 94.5389 21.8012C95.1987 22.0347 95.7736 22.3873 96.2635 22.8592C96.7584 23.331 97.1433 23.9245 97.4182 24.6395C97.6931 25.3498 97.8306 26.1816 97.8306 27.135V27.9887H88.1054V26.0624H94.8238C94.8238 25.6149 94.7239 25.2184 94.5239 24.873C94.3239 24.5277 94.0465 24.2577 93.6916 24.0631C93.3417 23.8637 92.9343 23.764 92.4694 23.764C91.9845 23.764 91.5546 23.8734 91.1797 24.0923C90.8098 24.3063 90.5199 24.5958 90.3099 24.9606C90.1 25.3206 89.9925 25.7219 89.9875 26.1645V27.996C89.9875 28.5505 90.0925 29.0297 90.3024 29.4334C90.5174 29.8372 90.8198 30.1485 91.2097 30.3674C91.5996 30.5863 92.062 30.6957 92.5969 30.6957C92.9518 30.6957 93.2767 30.6471 93.5716 30.5498C93.8666 30.4525 94.119 30.3066 94.3289 30.112C94.5389 29.9174 94.6989 29.6791 94.8088 29.3969L97.7631 29.5866C97.6132 30.2774 97.3057 30.8806 96.8408 31.3962C96.381 31.907 95.7861 32.3058 95.0563 32.5928C94.3314 32.875 93.4941 33.0161 92.5444 33.0161Z" fill="black"/>
<path d="M103.109 17.8537V32.7972H99.9151V17.8537H103.109Z" fill="black"/>
<path d="M109.912 32.9796C109.037 32.9796 108.245 32.7607 107.535 32.3229C106.83 31.8802 106.27 31.2308 105.856 30.3747C105.446 29.5137 105.241 28.4581 105.241 27.208C105.241 25.9237 105.453 24.856 105.878 24.0047C106.303 23.1486 106.868 22.5089 107.573 22.0857C108.282 21.6577 109.06 21.4436 109.905 21.4436C110.549 21.4436 111.087 21.5507 111.517 21.7647C111.952 21.9739 112.302 22.2365 112.566 22.5527C112.836 22.864 113.041 23.1705 113.181 23.4721H113.279V17.8537H116.466V32.7972H113.316V31.0022H113.181C113.031 31.3135 112.819 31.6224 112.544 31.9289C112.274 32.2305 111.922 32.481 111.487 32.6804C111.057 32.8798 110.532 32.9796 109.912 32.9796ZM110.924 30.506C111.439 30.506 111.874 30.3698 112.229 30.0974C112.589 29.8201 112.864 29.4334 113.054 28.9372C113.249 28.4411 113.346 27.8598 113.346 27.1934C113.346 26.5269 113.251 25.9481 113.061 25.4568C112.871 24.9655 112.596 24.586 112.237 24.3185C111.877 24.051 111.439 23.9172 110.924 23.9172C110.399 23.9172 109.957 24.0558 109.597 24.3331C109.237 24.6104 108.965 24.9946 108.78 25.486C108.595 25.9773 108.502 26.5464 108.502 27.1934C108.502 27.8452 108.595 28.4216 108.78 28.9227C108.97 29.4188 109.242 29.808 109.597 30.0901C109.957 30.3674 110.399 30.506 110.924 30.506Z" fill="black"/>
<path d="M126.702 37V31.0022H126.605C126.455 31.3135 126.243 31.6224 125.968 31.9289C125.698 32.2305 125.345 32.481 124.91 32.6804C124.48 32.8798 123.956 32.9796 123.336 32.9796C122.461 32.9796 121.669 32.7607 120.959 32.3229C120.254 31.8802 119.694 31.2308 119.279 30.3747C118.869 29.5137 118.664 28.4581 118.664 27.208C118.664 25.9237 118.877 24.856 119.302 24.0047C119.727 23.1486 120.291 22.5089 120.996 22.0857C121.706 21.6577 122.483 21.4436 123.328 21.4436C123.973 21.4436 124.51 21.5507 124.94 21.7647C125.375 21.9739 125.725 22.2365 125.99 22.5527C126.26 22.864 126.465 23.1705 126.605 23.4721H126.74V21.5896H129.889V37H126.702ZM124.348 30.506C124.863 30.506 125.298 30.3698 125.653 30.0974C126.013 29.8201 126.288 29.4334 126.477 28.9372C126.672 28.4411 126.77 27.8598 126.77 27.1934C126.77 26.5269 126.675 25.9481 126.485 25.4568C126.295 24.9655 126.02 24.586 125.66 24.3185C125.3 24.051 124.863 23.9172 124.348 23.9172C123.823 23.9172 123.381 24.0558 123.021 24.3331C122.661 24.6104 122.388 24.9946 122.204 25.486C122.019 25.9773 121.926 26.5464 121.926 27.1934C121.926 27.8452 122.019 28.4216 122.204 28.9227C122.393 29.4188 122.666 29.808 123.021 30.0901C123.381 30.3674 123.823 30.506 124.348 30.506Z" fill="black"/>
<path d="M139.839 28.0252V21.5896H143.034V32.7972H139.967V30.7614H139.847C139.587 31.4181 139.154 31.9459 138.55 32.3448C137.95 32.7436 137.217 32.9431 136.353 32.9431C135.583 32.9431 134.905 32.7728 134.321 32.4323C133.736 32.0918 133.278 31.6078 132.948 30.9803C132.624 30.3528 132.459 29.6012 132.454 28.7256V21.5896H135.648V28.1711C135.653 28.8327 135.835 29.3556 136.195 29.7399C136.555 30.1242 137.037 30.3163 137.642 30.3163C138.027 30.3163 138.387 30.2312 138.722 30.0609C139.057 29.8858 139.327 29.628 139.532 29.2875C139.742 28.947 139.844 28.5262 139.839 28.0252Z" fill="black"/>
<path d="M150.792 33.0161C149.628 33.0161 148.62 32.7753 147.771 32.2937C146.926 31.8072 146.273 31.1311 145.813 30.2652C145.354 29.3945 145.124 28.3851 145.124 27.2371C145.124 26.0794 145.354 25.0676 145.813 24.2018C146.273 23.331 146.926 22.6549 147.771 22.1733C148.62 21.6869 149.628 21.4436 150.792 21.4436C151.957 21.4436 152.962 21.6869 153.807 22.1733C154.656 22.6549 155.311 23.331 155.771 24.2018C156.231 25.0676 156.461 26.0794 156.461 27.2371C156.461 28.3851 156.231 29.3945 155.771 30.2652C155.311 31.1311 154.656 31.8072 153.807 32.2937C152.962 32.7753 151.957 33.0161 150.792 33.0161ZM150.807 30.6082C151.337 30.6082 151.78 30.4622 152.134 30.1704C152.489 29.8736 152.757 29.4699 152.937 28.9591C153.122 28.4484 153.214 27.8671 153.214 27.2153C153.214 26.5634 153.122 25.9821 152.937 25.4714C152.757 24.9606 152.489 24.5569 152.134 24.2601C151.78 23.9634 151.337 23.815 150.807 23.815C150.272 23.815 149.823 23.9634 149.458 24.2601C149.098 24.5569 148.825 24.9606 148.64 25.4714C148.46 25.9821 148.37 26.5634 148.37 27.2153C148.37 27.8671 148.46 28.4484 148.64 28.9591C148.825 29.4699 149.098 29.8736 149.458 30.1704C149.823 30.4622 150.272 30.6082 150.807 30.6082Z" fill="black"/>
<path d="M164.664 21.5896V23.9245H157.728V21.5896H164.664ZM159.303 18.9044H162.497V29.3532C162.497 29.6402 162.542 29.8639 162.632 30.0244C162.722 30.1801 162.847 30.2896 163.007 30.3528C163.172 30.416 163.362 30.4476 163.577 30.4476C163.727 30.4476 163.877 30.4355 164.027 30.4112C164.177 30.382 164.292 30.3601 164.372 30.3455L164.874 32.6585C164.714 32.7072 164.489 32.7631 164.199 32.8263C163.909 32.8944 163.557 32.9358 163.142 32.9504C162.372 32.9796 161.697 32.8798 161.117 32.6512C160.542 32.4226 160.095 32.0675 159.775 31.5859C159.455 31.1043 159.298 30.4963 159.303 29.7618V18.9044Z" fill="black"/>
<path d="M166.745 32.7972V21.5896H169.939V32.7972H166.745ZM168.349 20.1448C167.874 20.1448 167.467 19.9916 167.127 19.6852C166.792 19.3738 166.625 19.0017 166.625 18.5688C166.625 18.1407 166.792 17.7734 167.127 17.467C167.467 17.1557 167.874 17 168.349 17C168.824 17 169.229 17.1557 169.564 17.467C169.904 17.7734 170.074 18.1407 170.074 18.5688C170.074 19.0017 169.904 19.3738 169.564 19.6852C169.229 19.9916 168.824 20.1448 168.349 20.1448Z" fill="black"/>
<path d="M177.746 33.0161C176.562 33.0161 175.542 32.7826 174.687 32.3156C173.837 31.8437 173.183 31.1773 172.723 30.3163C172.263 29.4504 172.033 28.4265 172.033 27.2444C172.033 26.0916 172.263 25.0798 172.723 24.209C173.183 23.3383 173.83 22.6597 174.665 22.1733C175.505 21.6869 176.489 21.4436 177.619 21.4436C178.379 21.4436 179.086 21.5628 179.741 21.8012C180.401 22.0347 180.976 22.3873 181.466 22.8592C181.96 23.331 182.345 23.9245 182.62 24.6395C182.895 25.3498 183.033 26.1816 183.033 27.135V27.9887H173.308V26.0624H180.026C180.026 25.6149 179.926 25.2184 179.726 24.873C179.526 24.5277 179.249 24.2577 178.894 24.0631C178.544 23.8637 178.136 23.764 177.671 23.764C177.187 23.764 176.757 23.8734 176.382 24.0923C176.012 24.3063 175.722 24.5958 175.512 24.9606C175.302 25.3206 175.195 25.7219 175.19 26.1645V27.996C175.19 28.5505 175.295 29.0297 175.505 29.4334C175.719 29.8372 176.022 30.1485 176.412 30.3674C176.802 30.5863 177.264 30.6957 177.799 30.6957C178.154 30.6957 178.479 30.6471 178.774 30.5498C179.069 30.4525 179.321 30.3066 179.531 30.112C179.741 29.9174 179.901 29.6791 180.011 29.3969L182.965 29.5866C182.815 30.2774 182.508 30.8806 182.043 31.3962C181.583 31.907 180.988 32.3058 180.258 32.5928C179.534 32.875 178.696 33.0161 177.746 33.0161Z" fill="black"/>
<path d="M188.311 26.3178V32.7972H185.117V21.5896H188.161V23.5669H188.296C188.551 22.9151 188.979 22.3995 189.579 22.0201C190.178 21.6358 190.906 21.4436 191.761 21.4436C192.56 21.4436 193.258 21.6139 193.853 21.9544C194.447 22.2949 194.91 22.7813 195.24 23.4137C195.57 24.0412 195.735 24.7903 195.735 25.6611V32.7972H192.54V26.2156C192.545 25.5297 192.365 24.9946 192.001 24.6104C191.636 24.2212 191.133 24.0266 190.493 24.0266C190.064 24.0266 189.684 24.1166 189.354 24.2966C189.029 24.4766 188.774 24.7393 188.589 25.0846C188.409 25.4251 188.316 25.8362 188.311 26.3178Z" fill="black"/>
<path d="M204.378 21.5896V23.9245H197.442V21.5896H204.378ZM199.017 18.9044H202.211V29.3532C202.211 29.6402 202.256 29.8639 202.346 30.0244C202.436 30.1801 202.561 30.2896 202.721 30.3528C202.886 30.416 203.076 30.4476 203.291 30.4476C203.441 30.4476 203.591 30.4355 203.741 30.4112C203.891 30.382 204.006 30.3601 204.086 30.3455L204.588 32.6585C204.428 32.7072 204.203 32.7631 203.913 32.8263C203.623 32.8944 203.271 32.9358 202.856 32.9504C202.086 32.9796 201.411 32.8798 200.832 32.6512C200.257 32.4226 199.809 32.0675 199.489 31.5859C199.169 31.1043 199.012 30.4963 199.017 29.7618V18.9044Z" fill="black"/>
<path d="M209.901 17.8537V32.7972H206.706V17.8537H209.901Z" fill="black"/>
<path d="M215.744 33.0088C215.009 33.0088 214.354 32.8847 213.779 32.6366C213.204 32.3837 212.749 32.0116 212.414 31.5202C212.084 31.0241 211.92 30.4063 211.92 29.6669C211.92 29.0443 212.037 28.5213 212.272 28.0981C212.507 27.6749 212.827 27.3344 213.232 27.0766C213.637 26.8188 214.096 26.6242 214.611 26.4929C215.131 26.3615 215.676 26.2691 216.246 26.2156C216.916 26.1475 217.456 26.0843 217.866 26.0259C218.275 25.9627 218.573 25.8702 218.758 25.7486C218.943 25.627 219.035 25.447 219.035 25.2087V25.1649C219.035 24.7028 218.885 24.3453 218.585 24.0923C218.29 23.8394 217.871 23.7129 217.326 23.7129C216.751 23.7129 216.293 23.8369 215.954 24.085C215.614 24.3282 215.389 24.6347 215.279 25.0044L212.324 24.7709C212.474 24.0899 212.769 23.5013 213.209 23.0051C213.649 22.5041 214.216 22.1198 214.911 21.8522C215.611 21.5798 216.421 21.4436 217.341 21.4436C217.981 21.4436 218.593 21.5166 219.178 21.6625C219.768 21.8085 220.29 22.0347 220.745 22.3411C221.205 22.6476 221.567 23.0416 221.832 23.5232C222.097 23.9999 222.23 24.5714 222.23 25.2379V32.7972H219.2V31.243H219.11C218.925 31.5932 218.678 31.9021 218.368 32.1696C218.058 32.4323 217.686 32.6391 217.251 32.7899C216.816 32.9358 216.313 33.0088 215.744 33.0088ZM216.658 30.8636C217.128 30.8636 217.543 30.7736 217.903 30.5936C218.263 30.4087 218.545 30.1606 218.75 29.8493C218.955 29.538 219.058 29.1853 219.058 28.7913V27.602C218.958 27.6652 218.82 27.7236 218.645 27.7771C218.475 27.8257 218.283 27.8719 218.068 27.9157C217.853 27.9546 217.638 27.9911 217.423 28.0252C217.208 28.0544 217.013 28.0811 216.838 28.1054C216.463 28.1589 216.136 28.2441 215.856 28.3608C215.576 28.4776 215.359 28.6357 215.204 28.8351C215.049 29.0297 214.971 29.2729 214.971 29.5648C214.971 29.988 215.129 30.3114 215.444 30.5352C215.764 30.7541 216.169 30.8636 216.658 30.8636Z" fill="black"/>
<path d="M224.768 32.7972V17.8537H227.962V23.4721H228.059C228.199 23.1705 228.402 22.864 228.667 22.5527C228.937 22.2365 229.287 21.9739 229.717 21.7647C230.151 21.5507 230.691 21.4436 231.336 21.4436C232.176 21.4436 232.951 21.6577 233.661 22.0857C234.37 22.5089 234.938 23.1486 235.363 24.0047C235.788 24.856 236 25.9237 236 27.208C236 28.4581 235.793 29.5137 235.378 30.3747C234.968 31.2308 234.408 31.8802 233.698 32.3229C232.993 32.7607 232.203 32.9796 231.329 32.9796C230.709 32.9796 230.181 32.8798 229.747 32.6804C229.317 32.481 228.964 32.2305 228.689 31.9289C228.414 31.6224 228.204 31.3135 228.059 31.0022H227.917V32.7972H224.768ZM227.894 27.1934C227.894 27.8598 227.989 28.4411 228.179 28.9372C228.369 29.4334 228.644 29.8201 229.004 30.0974C229.364 30.3698 229.801 30.506 230.316 30.506C230.836 30.506 231.276 30.3674 231.636 30.0901C231.996 29.808 232.268 29.4188 232.453 28.9227C232.643 28.4216 232.738 27.8452 232.738 27.1934C232.738 26.5464 232.646 25.9773 232.461 25.486C232.276 24.9946 232.003 24.6104 231.644 24.3331C231.284 24.0558 230.841 23.9172 230.316 23.9172C229.796 23.9172 229.357 24.051 228.997 24.3185C228.642 24.586 228.369 24.9655 228.179 25.4568C227.989 25.9481 227.894 26.5269 227.894 27.1934Z" fill="black"/>
<path fill-rule="evenodd" clip-rule="evenodd" d="M25.6844 0.700859C24.0186 -0.23362 21.9814 -0.233619 20.3156 0.70086L2.77164 10.5427C1.059 11.5034 0 13.3049 0 15.2577V34.7423C0 36.6951 1.059 38.4966 2.77164 39.4573L20.3156 49.2991C21.9814 50.2336 24.0186 50.2336 25.6844 49.2991L43.2284 39.4573C44.941 38.4966 46 36.6951 46 34.7423V15.2577C46 13.3049 44.941 11.5034 43.2284 10.5426L25.6844 0.700859ZM23 42.4383C32.7645 42.4383 40.6803 34.6309 40.6803 25C40.6803 15.3691 32.7645 7.56173 23 7.56173C13.2355 7.56173 5.31973 15.3691 5.31973 25C5.31973 34.6309 13.2355 42.4383 23 42.4383Z" fill="#7E6EF5"/>
<path d="M22.7809 13.405C22.8378 13.2888 23.0057 13.2888 23.0627 13.405C23.0627 13.405 24.511 18.6342 26.6536 20.9877C28.6277 23.156 32.9717 24.794 32.9717 24.794C33.0656 24.8549 33.0656 24.9907 32.9717 25.0517C32.9717 25.0517 28.6277 26.6897 26.6536 28.858C24.511 31.2115 23.0627 36.4406 23.0627 36.4406C23.0057 36.5569 22.8378 36.5569 22.7809 36.4406C22.7809 36.4406 21.7004 31.2115 19.5578 28.858C17.5838 26.6897 12.8718 25.0517 12.8718 25.0517C12.778 24.9907 12.778 24.8549 12.8718 24.794C12.8718 24.794 17.5838 23.156 19.5578 20.9877C21.7004 18.6342 22.7809 13.405 22.7809 13.405Z" fill="#7E6EF5"/>
</svg>
