<svg width="525" height="194" viewBox="0 0 525 194" fill="none" xmlns="http://www.w3.org/2000/svg">
<mask id="path-1-inside-1_17_486" fill="white">
<path d="M518 0C521.866 0 525 3.13401 525 7V151C525 155.418 521.418 159 517 159H438C433.582 159 430 162.582 430 167V186C430 190.418 426.418 194 422 194H7C3.13401 194 0 190.866 0 187V7C0 3.13401 3.13401 9.1605e-08 7 0H518ZM518 194C521.866 194 525 190.866 525 187C525 190.866 521.866 194 518 194Z"/>
</mask>
<path d="M518 0C521.866 0 525 3.13401 525 7V151C525 155.418 521.418 159 517 159H438C433.582 159 430 162.582 430 167V186C430 190.418 426.418 194 422 194H7C3.13401 194 0 190.866 0 187V7C0 3.13401 3.13401 9.1605e-08 7 0H518ZM518 194C521.866 194 525 190.866 525 187C525 190.866 521.866 194 518 194Z" fill="#FCF6F2"/>
<path d="M7 0V-1V-1V0ZM518 0V1C521.314 1 524 3.68629 524 7H525H526C526 2.58172 522.418 -1 518 -1V0ZM525 7H524V151H525H526V7H525ZM517 159V158H438V159V160H517V159ZM430 167H429V186H430H431V167H430ZM422 194V193H7V194V195H422V194ZM7 194V193C3.68629 193 1 190.314 1 187H0H-1C-1 191.418 2.58172 195 7 195V194ZM0 187H1V7H0H-1V187H0ZM0 7H1C1 3.68629 3.68629 1 7 1V0V-1C2.58172 -1 -1 2.58172 -1 7H0ZM7 0V1H518V0V-1H7V0ZM518 194V195C522.418 195 526 191.418 526 187H525H524C524 190.314 521.314 193 518 193V194ZM518 194V195C522.418 195 526 191.418 526 187H525H524C524 190.314 521.314 193 518 193V194ZM430 186H429C429 189.866 425.866 193 422 193V194V195C426.971 195 431 190.971 431 186H430ZM438 159V158C433.029 158 429 162.029 429 167H430H431C431 163.134 434.134 160 438 160V159ZM525 151H524C524 154.866 520.866 158 517 158V159V160C521.971 160 526 155.971 526 151H525Z" fill="#201E1F" mask="url(#path-1-inside-1_17_486)"/>
</svg>
