<svg xmlns="http://www.w3.org/2000/svg" width="110" height="120" viewBox="0 0 110 120" fill="none">
    <path fill-rule="evenodd" clip-rule="evenodd" d="M61.4192 1.68206C57.4358 -0.560689 52.5642 -0.560687 48.5808 1.68206L6.62783 25.3024C2.53238 27.6082 0 31.9318 0 36.6184V83.3816C0 88.0682 2.53239 92.3918 6.62783 94.6976L48.5808 118.318C52.5642 120.561 57.4358 120.561 61.4192 118.318L103.372 94.6976C107.468 92.3918 110 88.0682 110 83.3816V36.6184C110 31.9318 107.468 27.6082 103.372 25.3024L61.4192 1.68206ZM55 101.852C78.35 101.852 97.2789 83.1141 97.2789 60C97.2789 36.8859 78.35 18.1481 55 18.1481C31.65 18.1481 12.7211 36.8859 12.7211 60C12.7211 83.1141 31.65 101.852 55 101.852Z" fill="#7E6EF5"/>
    <path d="M54.476 32.1721C54.6122 31.893 55.0137 31.893 55.1499 32.1721C55.1499 32.1721 58.6134 44.7221 63.7369 50.3704C68.4574 55.5743 78.8454 59.5055 78.8454 59.5055C79.0699 59.6519 79.0699 59.9778 78.8454 60.1241C78.8454 60.1241 68.4574 64.0553 63.7369 69.2593C58.6134 74.9075 55.1499 87.4575 55.1499 87.4575C55.0137 87.7366 54.6122 87.7366 54.476 87.4575C54.476 87.4575 51.8922 74.9075 46.7687 69.2593C42.0482 64.0553 30.7805 60.1241 30.7805 60.1241C30.556 59.9778 30.556 59.6519 30.7805 59.5055C30.7805 59.5055 42.0482 55.5743 46.7687 50.3704C51.8922 44.7221 54.476 32.1721 54.476 32.1721Z" fill="#7E6EF5"/>
</svg>